<?xml version="1.0" encoding="utf-8"?>
<!-- Generator: Adobe Illustrator 16.0.0, SVG Export Plug-In . SVG Version: 6.00 Build 0)  -->
<!DOCTYPE svg PUBLIC "-//W3C//DTD SVG 1.1//EN" "http://www.w3.org/Graphics/SVG/1.1/DTD/svg11.dtd">
<svg version="1.1" id="real_logo" xmlns="http://www.w3.org/2000/svg" xmlns:xlink="http://www.w3.org/1999/xlink" x="0px" y="0px"
	 width="2000px" height="2000px" viewBox="0 0 2000 2000" enable-background="new 0 0 2000 2000" xml:space="preserve">
<g>
	<g>
		<path fill="#23F01F" d="M976.421,1050.854c0,0,387.975,781.117-972.988,533.281"/>
		<path fill="#23F01F" d="M978.219,1049.978c0,0,0.162,0.314,0.481,0.934c0.316,0.63,0.787,1.571,1.409,2.812
			c1.22,2.478,2.996,6.163,5.197,11.019c4.404,9.71,10.561,24.095,17.282,42.847c6.723,18.743,13.997,41.881,20.096,69.051
			c3.043,13.581,5.813,28.163,7.94,43.684c2.167,15.513,3.658,31.969,4.175,49.226c0.444,17.253-0.018,35.316-2.069,53.934
			c-2.064,18.604-5.531,37.792-11.136,57.049c-5.568,19.254-13.171,38.596-23.122,57.306c-9.969,18.688-22.182,36.766-36.512,53.542
			c-14.368,16.731-30.69,32.279-48.621,46.109c-4.438,3.524-9.065,6.802-13.666,10.155c-4.694,3.203-9.385,6.458-14.232,9.471
			c-4.783,3.131-9.734,5.985-14.647,8.944c-5.001,2.781-9.96,5.694-15.074,8.305c-10.133,5.435-20.562,10.33-31.101,15.035
			c-5.298,2.274-10.589,4.605-15.97,6.7c-2.686,1.06-5.354,2.185-8.061,3.192l-8.123,3.034c-21.7,8.033-43.933,14.626-66.338,20.309
			c-44.836,11.327-90.401,18.808-135.383,23.84c-22.501,2.447-44.87,4.326-66.984,5.478c-22.115,1.11-43.968,1.583-65.445,1.56
			c-42.944-0.303-84.359-2.593-123.412-6.347c-9.763-0.934-19.398-1.791-28.855-2.917c-4.731-0.529-9.427-1.055-14.084-1.575
			c-4.657-0.524-9.266-1.122-13.841-1.673c-4.571-0.586-9.103-1.167-13.594-1.742c-4.484-0.619-8.929-1.232-13.332-1.84
			c-4.401-0.614-8.761-1.224-13.078-1.826c-4.308-0.662-8.572-1.316-12.793-1.965c-33.765-5.163-64.551-10.752-91.709-16.279
			c-13.597-2.656-26.252-5.516-37.972-8.012c-11.69-2.67-22.421-5.111-32.09-7.434c-9.664-2.347-18.272-4.525-25.761-6.404
			c-7.483-1.912-13.826-3.639-18.967-5.044c-10.287-2.778-15.751-4.351-15.751-4.35l0.717-3.936c0,0,5.673,0.411,16.269,1.351
			c5.295,0.473,11.825,1.057,19.502,1.742c7.673,0.692,16.491,1.471,26.346,2.436c19.702,1.789,43.626,3.961,71.068,6.453
			c27.404,2.488,58.315,5.005,91.984,7.564c8.417,0.654,17.014,1.227,25.767,1.846c4.376,0.306,8.794,0.613,13.251,0.925
			c4.458,0.269,8.956,0.54,13.492,0.814c4.534,0.289,9.103,0.624,13.712,0.882c4.609,0.256,9.254,0.514,13.936,0.773
			c9.361,0.544,18.862,0.961,28.49,1.467c38.522,1.797,79.091,2.947,120.987,3.416c41.883,0.302,85.138,0.031,128.894-2.751
			c43.743-2.688,88.008-8.059,131.26-17.589c21.604-4.799,43.002-10.455,63.799-17.461l7.787-2.646
			c2.597-0.879,5.144-1.868,7.716-2.795c5.159-1.829,10.208-3.882,15.278-5.878c10.064-4.141,20.028-8.454,29.674-13.267
			c4.881-2.306,9.585-4.895,14.354-7.356c4.664-2.629,9.385-5.156,13.921-7.942c4.619-2.665,9.041-5.594,13.534-8.401
			c4.379-2.96,8.802-5.848,13.029-8.966c17.107-12.222,32.685-26.029,46.516-40.983c13.787-14.998,25.667-31.264,35.547-48.253
			c9.845-17.015,17.607-34.769,23.605-52.63c6.003-17.871,10.033-35.906,12.726-53.565c2.682-17.673,3.838-35.007,4.087-51.683
			c0.352-33.38-3.063-64.093-7.849-90.975c-2.394-13.451-5.132-25.966-7.982-37.465c-2.833-11.504-5.754-22.004-8.621-31.42
			c-5.72-18.842-11.107-33.379-14.985-43.191c-1.939-4.907-3.513-8.633-4.591-11.129c-0.545-1.238-0.959-2.176-1.236-2.805
			c-0.288-0.634-0.434-0.956-0.434-0.956L978.219,1049.978z"/>
	</g>
	<g>
		<path fill="#23F01F" d="M976.421,1050.854c0,0-404.505-524.097-976.421,535.865"/>
		<path fill="#23F01F" d="M974.846,1052.086c0,0-0.205-0.243-0.608-0.722c-0.409-0.471-1.019-1.173-1.823-2.1
			c-1.648-1.842-4.104-4.576-7.456-8.015c-6.684-6.883-16.836-16.696-30.712-28.017c-6.955-5.636-14.822-11.66-23.646-17.834
			c-8.843-6.146-18.637-12.441-29.394-18.627c-2.707-1.514-5.457-3.052-8.249-4.613c-2.838-1.472-5.719-2.966-8.642-4.481
			c-1.45-0.777-2.946-1.491-4.455-2.204c-1.505-0.719-3.021-1.442-4.546-2.171c-1.531-0.716-3.047-1.489-4.618-2.173
			c-1.57-0.684-3.149-1.373-4.74-2.065c-1.589-0.693-3.188-1.39-4.797-2.092c-1.6-0.722-3.268-1.312-4.913-1.98
			c-1.652-0.651-3.314-1.306-4.986-1.964c-1.67-0.662-3.346-1.335-5.071-1.911c-3.425-1.207-6.89-2.427-10.394-3.662
			c-3.544-1.1-7.126-2.212-10.747-3.336c-14.547-4.25-29.956-7.697-46.06-10.039c-2.017-0.266-4.042-0.533-6.075-0.802
			c-1.016-0.135-2.034-0.27-3.054-0.404c-1.019-0.146-2.042-0.271-3.074-0.341c-4.116-0.354-8.264-0.711-12.444-1.071
			c-4.187-0.249-8.414-0.353-12.661-0.541c-1.062-0.042-2.125-0.085-3.191-0.127c-1.067,0.005-2.137,0.011-3.208,0.017
			c-2.141,0.017-4.29,0.034-6.446,0.051c-2.155,0.025-4.316,0.012-6.484,0.067c-2.167,0.122-4.34,0.243-6.521,0.365
			c-4.359,0.274-8.749,0.381-13.143,0.925c-4.396,0.474-8.826,0.84-13.26,1.401c-4.422,0.667-8.869,1.336-13.34,2.01
			c-17.82,3.109-35.797,7.523-53.709,13.251c-4.457,1.502-8.898,3.126-13.372,4.688l-3.355,1.184
			c-1.119,0.396-2.245,0.772-3.342,1.243c-2.208,0.896-4.419,1.794-6.635,2.693c-2.215,0.898-4.433,1.797-6.656,2.698l-3.335,1.351
			c-1.116,0.44-2.194,0.988-3.295,1.477c-4.379,2.008-8.772,4.023-13.179,6.043c-1.099,0.51-2.208,0.998-3.301,1.525l-3.248,1.666
			c-2.167,1.11-4.335,2.222-6.508,3.335c-2.173,1.107-4.35,2.217-6.53,3.327c-1.085,0.564-2.193,1.08-3.261,1.685l-3.21,1.805
			c-4.282,2.406-8.575,4.817-12.877,7.234c-1.072,0.609-2.157,1.195-3.221,1.823l-3.16,1.951c-2.107,1.3-4.217,2.602-6.329,3.905
			c-2.111,1.302-4.224,2.604-6.339,3.909c-2.118,1.299-4.243,2.588-6.292,4.016c-4.137,2.782-8.282,5.57-12.433,8.362
			c-2.066,1.408-4.17,2.758-6.209,4.217l-6.084,4.437c-4.057,2.957-8.12,5.918-12.186,8.881c-2.058,1.442-3.989,3.08-5.987,4.615
			l-5.95,4.679c-3.953,3.14-7.97,6.191-11.875,9.403l-11.603,9.796l-5.802,4.896l-2.896,2.455l-2.822,2.55
			c-30.385,26.847-58.771,56.024-85.203,86.086c-6.518,7.602-13.01,15.173-19.47,22.706c-3.279,3.716-6.311,7.65-9.47,11.444
			c-3.131,3.819-6.254,7.627-9.367,11.425c-1.564,1.891-3.125,3.779-4.684,5.665l-2.336,2.825l-2.264,2.884
			c-3.029,3.83-6.048,7.647-9.057,11.451c-5.983,7.634-12.147,15.021-17.868,22.688c-5.852,7.557-11.621,15.075-17.432,22.45
			c-5.663,7.501-11.271,14.93-16.82,22.279c-2.771,3.679-5.551,7.32-8.33,10.932c-2.75,3.633-5.388,7.322-8.063,10.948
			c-5.367,7.244-10.669,14.399-15.9,21.459c-10.271,14.288-20.261,28.187-29.924,41.63c-9.517,13.584-18.712,26.709-27.539,39.31
			c-8.633,12.746-17.033,24.896-25.022,36.465c-7.893,11.632-15.248,22.762-22.355,33.112
			c-7.119,10.344-13.558,20.174-19.594,29.223c-6.066,9.031-11.63,17.34-16.744,24.801c-9.967,15.072-17.876,26.897-23.406,34.891
			c-5.476,8.023-8.48,12.264-8.479,12.264l-3.521-1.898c0,0,1.969-4.803,5.816-13.736c3.811-8.953,9.519-22.028,17.033-38.564
			c3.847-8.219,8.203-17.271,12.937-27.141c2.391-4.924,4.878-10.049,7.459-15.364c1.277-2.667,2.618-5.358,4.033-8.069
			c1.399-2.721,2.822-5.486,4.269-8.298c2.882-5.631,5.886-11.427,9.008-17.38c3.134-5.946,6.263-12.121,9.652-18.358
			c6.865-12.424,14.084-25.501,21.748-39.079c3.848-6.78,7.938-13.609,12.082-20.585c4.149-6.976,8.377-14.082,12.677-21.312
			c4.428-7.152,9.034-14.365,13.658-21.727c4.655-7.343,9.294-14.853,14.282-22.288c4.985-7.44,10.039-14.982,15.155-22.618
			c2.593-3.795,5.144-7.651,7.815-11.462c2.688-3.8,5.407-7.61,8.164-11.427c5.507-7.637,11.014-15.398,16.767-23.101
			c5.818-7.659,11.791-15.318,17.779-23.066c5.954-7.771,12.325-15.343,18.683-23.002c3.188-3.822,6.389-7.658,9.6-11.507l2.42-2.88
			l2.499-2.828c1.667-1.886,3.337-3.775,5.009-5.667c3.359-3.771,6.729-7.553,10.107-11.344c1.693-1.893,3.388-3.787,5.086-5.684
			c1.681-1.909,3.437-3.763,5.2-5.614c7.028-7.418,14.091-14.873,21.182-22.358c28.901-29.452,59.557-58.175,91.976-84.936
			l3.008-2.541l3.089-2.452l6.19-4.889c4.125-3.257,8.25-6.513,12.372-9.767c4.165-3.202,8.456-6.253,12.672-9.381l6.346-4.66
			c2.132-1.531,4.187-3.155,6.386-4.597c4.341-2.952,8.678-5.901,13.009-8.847l6.491-4.411c2.175-1.451,4.426-2.797,6.632-4.199
			c4.432-2.774,8.858-5.543,13.275-8.309c2.186-1.415,4.459-2.697,6.722-3.988c2.261-1.294,4.519-2.588,6.775-3.88
			c2.256-1.291,4.509-2.58,6.76-3.869l3.374-1.93c1.137-0.622,2.298-1.204,3.445-1.807c4.599-2.389,9.188-4.773,13.765-7.151
			l3.43-1.78c1.141-0.596,2.329-1.106,3.49-1.663c2.335-1.087,4.668-2.172,6.997-3.256c2.331-1.078,4.658-2.155,6.981-3.229
			l3.482-1.61c1.173-0.51,2.365-0.981,3.544-1.472c4.728-1.943,9.441-3.88,14.139-5.811c1.18-0.469,2.333-0.993,3.532-1.414
			l3.58-1.29c2.384-0.857,4.764-1.714,7.139-2.568c2.374-0.853,4.744-1.705,7.11-2.555c1.174-0.447,2.383-0.801,3.583-1.173
			l3.598-1.112c4.797-1.466,9.551-2.987,14.323-4.382c19.189-5.308,38.417-9.222,57.416-11.752
			c4.764-0.524,9.501-1.044,14.212-1.563c4.721-0.407,9.436-0.615,14.104-0.925c4.666-0.388,9.333-0.285,13.952-0.373
			c2.311-0.024,4.613-0.048,6.908-0.073c2.296,0.043,4.584,0.155,6.862,0.23c2.278,0.084,4.548,0.168,6.811,0.252
			c1.13,0.045,2.258,0.091,3.385,0.136c1.124,0.094,2.246,0.188,3.366,0.282c4.479,0.395,8.927,0.708,13.326,1.168
			c4.386,0.575,8.738,1.146,13.056,1.712c1.081,0.125,2.152,0.304,3.218,0.503c1.067,0.189,2.132,0.378,3.195,0.567
			c2.124,0.377,4.239,0.754,6.346,1.128c16.809,3.213,32.77,7.545,47.732,12.653c14.987,5.058,28.863,11.167,41.731,17.514
			c1.607,0.797,3.204,1.589,4.79,2.375c1.586,0.786,3.115,1.66,4.658,2.476c1.537,0.829,3.063,1.652,4.578,2.469
			c1.518,0.811,3.021,1.623,4.478,2.496c2.931,1.708,5.819,3.39,8.664,5.048c2.79,1.745,5.538,3.463,8.242,5.155
			c10.732,6.892,20.434,13.826,29.153,20.543c8.679,6.774,16.347,13.356,23.109,19.465c13.483,12.275,23.228,22.776,29.634,30.132
			c3.211,3.672,5.561,6.592,7.142,8.563c0.781,1.006,1.374,1.768,1.771,2.278c0.388,0.515,0.584,0.776,0.584,0.776L974.846,1052.086
			z"/>
	</g>
	<g opacity="0.6">
		<path fill="#FFFFFF" d="M258.982,1551.172c0,0,1.297-8.663,3.243-21.658c0.472-3.241,0.983-6.751,1.524-10.464
			c0.515-3.708,1.057-7.618,1.618-11.663c0.546-4.032,1.11-8.199,1.684-12.434c0.546-4.229,1.133-8.509,1.63-12.79
			c0.511-4.279,0.763-8.592,0.921-12.818c0.092-2.103,0.183-4.188,0.273-6.249c0.124-2.048,0.292-4.054,0.507-6.012
			c0.457-3.914,1.149-7.635,1.875-11.139c0.718-3.503,1.424-6.789,2.107-9.806c1.322-6.037,2.396-10.99,2.728-14.486
			c0.164-1.735,0.171-3.157,0.065-4.124c-0.021-0.521-0.142-0.843-0.173-1.126c-0.048-0.272-0.073-0.412-0.073-0.412l1.447-1.381
			c0,0,0.15,0.069,0.44,0.202c0.28,0.143,0.756,0.353,1.256,0.716c1.108,0.682,2.477,1.968,3.865,3.842
			c1.38,1.87,2.718,4.309,3.819,7.156c1.112,2.847,2.043,6.097,2.686,9.622c0.681,3.525,1.074,7.324,1.218,11.295
			c0.149,3.972-0.003,8.112-0.595,12.31c-0.31,2.097-0.712,4.209-1.216,6.322c-0.503,2.115-1.112,4.23-1.721,6.354
			c-1.253,4.244-2.568,8.513-3.726,12.796c-1.17,4.28-2.356,8.542-3.633,12.703c-1.246,4.168-2.581,8.235-3.882,12.16
			c-1.34,3.916-2.63,7.695-3.935,11.253c-1.315,3.55-2.559,6.906-3.707,10.004c-1.159,3.092-2.303,5.899-3.291,8.393
			c-0.992,2.493-1.88,4.657-2.637,6.432c-1.489,3.555-2.4,5.567-2.4,5.567L258.982,1551.172z"/>
	</g>
	<g opacity="0.6">
		<path fill="#FFFFFF" d="M462.715,1126.408c0,0,3.733-1.858,10.381-4.822c3.322-1.49,7.384-3.234,12.085-5.141
			s10.025-4.021,15.901-6.158c5.874-2.141,12.278-4.369,19.115-6.567c6.833-2.215,14.118-4.32,21.709-6.36
			c7.597-2.016,15.512-3.943,23.655-5.518c8.136-1.611,16.479-2.981,24.907-4.013c8.425-1.036,16.92-1.917,25.385-2.376
			c8.46-0.46,16.903-0.409,25.055,0.544c8.146,0.955,15.989,2.755,23.207,5.259c3.622,1.206,7.073,2.617,10.361,4.097
			c1.632,0.778,3.239,1.511,4.773,2.354c1.545,0.81,3.052,1.603,4.477,2.503c5.77,3.417,10.666,7.188,14.614,10.896
			c1.945,1.896,3.743,3.655,5.24,5.453c0.758,0.887,1.484,1.728,2.146,2.558c0.648,0.847,1.248,1.665,1.812,2.439
			c1.167,1.509,2.024,3.012,2.817,4.252c0.379,0.637,0.749,1.203,1.046,1.757c0.287,0.56,0.548,1.066,0.782,1.521
			c0.931,1.808,1.377,2.783,1.377,2.783l-1.557,1.256c0,0-0.897-0.596-2.484-1.735c-0.799-0.563-1.755-1.273-2.948-2.023
			c-1.172-0.767-2.455-1.691-3.992-2.592c-0.749-0.462-1.537-0.948-2.364-1.459c-0.831-0.497-1.739-0.965-2.645-1.486
			c-0.902-0.527-1.844-1.063-2.866-1.55c-1.014-0.497-2.012-1.067-3.094-1.578c-4.294-2.092-9.239-4.099-14.696-5.948
			c-1.349-0.489-2.782-0.875-4.204-1.331c-1.414-0.471-2.909-0.832-4.404-1.234c-2.979-0.848-6.128-1.508-9.351-2.21
			c-6.477-1.305-13.385-2.371-20.627-3.302c-7.235-0.952-14.808-1.877-22.625-2.486c-7.814-0.599-15.857-0.733-23.912-0.414
			c-8.055,0.323-16.135,0.978-24.082,1.887c-7.942,0.935-15.778,1.962-23.342,3.19c-7.566,1.219-14.853,2.636-21.766,4.025
			c-6.912,1.4-13.425,2.881-19.42,4.338c-5.993,1.465-11.49,2.842-16.335,4.164c-4.846,1.321-9.061,2.525-12.531,3.528
			c-6.935,2.026-10.837,3.349-10.837,3.349L462.715,1126.408z"/>
	</g>
	<g opacity="0.6">
		<path fill="#FFFFFF" d="M845.544,1432.764c0,0,0.802-5.51,2.059-15.178c0.618-4.834,1.368-10.703,2.229-17.437
			c0.811-6.735,1.725-14.335,2.723-22.626c0.979-8.289,1.989-17.273,2.985-26.779c0.983-9.509,2.049-19.525,3-29.899
			c0.97-10.371,1.841-21.095,2.749-31.976c0.875-10.886,1.648-21.945,2.271-33c0.621-11.055,0.93-22.118,1.001-32.986
			c0.036-10.832,0.07-21.491,0.104-31.808c0.132-10.248,0.259-20.155,0.38-29.55c0.053-9.368-0.057-18.197-0.382-26.311
			c-0.349-8.11-0.893-15.509-1.718-22.003c-0.826-6.493-1.903-12.083-3.119-16.613c-1.217-4.528-2.641-7.931-3.688-10.268
			c-0.533-1.157-1.049-1.98-1.341-2.589c-0.31-0.599-0.469-0.907-0.469-0.907l1.489-1.334c0,0,0.279,0.231,0.82,0.681
			c0.531,0.459,1.364,1.125,2.354,2.086c0.927,0.993,2.211,2.187,3.394,3.786c0.605,0.792,1.33,1.624,1.975,2.569
			c0.657,0.94,1.324,1.965,2.043,3.05c2.716,4.389,5.495,10.031,7.917,16.721c2.439,6.684,4.591,14.39,6.282,22.862
			c0.879,4.232,1.569,8.662,2.263,13.248c0.285,2.295,0.575,4.629,0.87,6.998c0.26,2.367,0.506,4.777,0.713,7.218
			c0.88,9.76,1.253,20.056,1.053,30.661c-0.213,10.607-1.083,21.517-2.232,32.545c-1.145,11.028-2.453,22.188-3.769,33.327
			c-1.308,11.141-2.764,22.249-4.311,33.161c-1.516,10.914-3.26,21.615-4.995,31.954c-1.751,10.338-3.486,20.316-5.286,29.751
			c-1.786,9.436-3.541,18.341-5.205,26.55c-1.659,8.21-3.293,15.714-4.738,22.361c-1.446,6.648-2.759,12.433-3.88,17.188
			c-2.224,9.513-3.578,14.933-3.578,14.933L845.544,1432.764z"/>
	</g>
	<path opacity="0.6" fill="none" stroke="#FFFFFF" stroke-width="20" stroke-miterlimit="10" d="M1271.949,1027.682
		c0,0-186.652,1.199-295.297,24.281c-223.727,47.531-536.349,158.227-785.533,457.043"/>
	<g opacity="0.6">
		<path fill="#FFFFFF" d="M264.833,1335.4c0,0,1.986-1.048,5.499-2.764c1.753-0.871,3.896-1.894,6.366-3.042
			c2.472-1.142,5.255-2.457,8.326-3.8c3.07-1.347,6.403-2.797,9.948-4.291c3.539-1.514,7.31-3.007,11.215-4.563
			c3.917-1.517,7.983-3.06,12.153-4.526c4.167-1.479,8.437-2.888,12.732-4.26c4.299-1.359,8.571-2.89,12.833-4.319
			c4.251-1.449,8.51-2.723,12.738-3.494c4.225-0.778,8.416-1.089,12.417-1.131c2.001-0.026,3.974,0.06,5.862,0.132
			c1.904,0.124,3.755,0.303,5.516,0.521c1.774,0.221,3.483,0.552,5.084,0.84c0.798,0.136,1.599,0.377,2.358,0.554
			c0.763,0.184,1.5,0.378,2.21,0.584c1.417,0.366,2.762,0.907,3.967,1.331c1.205,0.438,2.312,0.931,3.29,1.43
			c0.979,0.479,1.829,0.909,2.561,1.347c0.729,0.467,1.333,0.866,1.811,1.216c0.96,0.67,1.438,1.066,1.438,1.066l-0.482,1.941
			c0,0-0.607,0.179-1.681,0.438c-0.539,0.145-1.189,0.292-1.935,0.462c-0.747,0.168-1.624,0.451-2.563,0.678
			c-0.472,0.123-0.965,0.254-1.475,0.37c-0.51,0.12-1.061,0.312-1.619,0.461c-0.555,0.151-1.132,0.309-1.732,0.473
			c-0.593,0.16-1.203,0.297-1.846,0.504c-1.28,0.404-2.611,0.708-4.023,1.122c-1.421,0.411-2.894,0.817-4.434,1.216
			c-1.549,0.472-3.149,0.86-4.81,1.301c-1.67,0.46-3.383,0.875-5.156,1.315c-3.547,0.902-7.297,1.736-11.25,2.369
			c-1.979,0.314-4.003,0.536-6.074,0.77c-2.083,0.181-4.191,0.364-6.316,0.549c-1.069,0.09-2.142,0.18-3.218,0.271
			c-1.076,0.116-2.154,0.232-3.234,0.349c-2.167,0.207-4.323,0.552-6.48,0.89c-4.312,0.694-8.613,1.502-12.868,2.251
			c-4.256,0.795-8.444,1.578-12.497,2.335c-4.064,0.784-7.992,1.543-11.717,2.263c-3.731,0.724-7.253,1.449-10.505,2.129
			c-6.516,1.369-11.946,2.509-15.747,3.308c-3.804,0.818-5.979,1.286-5.979,1.286L264.833,1335.4z"/>
	</g>
	<g opacity="0.6">
		<path fill="#FFFFFF" d="M525.844,1439.612c0,0,0.737-3.594,2.027-9.882c0.618-3.148,1.368-6.972,2.229-11.356
			c0.86-4.383,1.749-9.345,2.756-14.743c0.999-5.399,2.037-11.256,3.078-17.454c1.018-6.204,2.164-12.724,3.188-19.494
			c1.069-6.761,2.027-13.765,3.094-20.853c1.004-7.1,1.966-14.313,2.804-21.529c0.403-3.609,0.833-7.216,1.079-10.825
			c0.142-1.802,0.283-3.601,0.424-5.394c0.106-1.793,0.213-3.582,0.319-5.363c0.204-3.554,0.406-7.08,0.606-10.563
			c0.251-3.475,0.459-6.896,0.763-10.252c0.615-6.711,1.371-13.163,2.19-19.281c0.785-6.126,1.527-11.918,2.213-17.264
			c0.381-2.686,0.665-5.247,0.98-7.7c0.17-1.229,0.336-2.425,0.498-3.589c0.125-1.161,0.252-2.29,0.397-3.389
			c0.557-4.425,1.042-8.282,1.442-11.459c0.109-0.805,0.211-1.566,0.308-2.282c0.078-0.717,0.151-1.389,0.219-2.014
			c0.152-1.255,0.283-2.329,0.417-3.207c0.238-1.752,0.408-2.704,0.408-2.704l1.976-0.311c0,0,0.413,0.865,1.103,2.52
			c0.36,0.826,0.771,1.853,1.251,3.067c0.476,1.216,1.013,2.621,1.481,4.213c0.513,1.588,1.026,3.36,1.594,5.301
			c0.547,1.942,1.002,4.049,1.508,6.316c0.257,1.133,0.511,2.306,0.746,3.516c0.204,1.21,0.414,2.454,0.629,3.73
			c0.39,2.559,0.853,5.266,1.103,8.08c0.154,1.409,0.309,2.85,0.432,4.319c0.145,1.472,0.26,2.968,0.344,4.487
			c0.071,1.521,0.144,3.068,0.217,4.64c0.035,0.787,0.069,1.579,0.104,2.378c0.007,0.796,0.014,1.598,0.021,2.404
			c0.121,6.463-0.112,13.266-0.839,20.236c-0.724,6.973-1.995,14.106-3.51,21.287c-1.478,7.191-3.13,14.44-4.634,21.699
			c-1.528,7.255-3.177,14.473-4.854,21.557c-1.678,7.082-3.507,14.008-5.338,20.686c-0.905,3.342-1.819,6.619-2.733,9.821
			c-0.891,3.208-1.818,6.331-2.728,9.368c-1.824,6.072-3.599,11.794-5.277,17.062c-1.673,5.269-3.3,10.068-4.744,14.319
			c-1.438,4.253-2.741,7.943-3.841,10.975c-2.183,6.063-3.532,9.5-3.532,9.5L525.844,1439.612z"/>
	</g>
</g>
<g>
	<g>
		<path fill="#23F01F" d="M1023.578,1050.854c0,0-387.975,781.117,972.988,533.281"/>
		<path fill="#23F01F" d="M1025.376,1051.729c0,0-0.146,0.322-0.434,0.956c-0.277,0.629-0.69,1.566-1.236,2.805
			c-1.079,2.496-2.652,6.222-4.592,11.13c-3.878,9.812-9.265,24.349-14.985,43.19c-2.866,9.416-5.787,19.916-8.62,31.42
			c-2.851,11.499-5.59,24.014-7.983,37.465c-4.786,26.882-8.2,57.595-7.849,90.975c0.25,16.676,1.406,34.01,4.087,51.683
			c2.692,17.659,6.723,35.694,12.726,53.565c5.998,17.861,13.76,35.615,23.605,52.63c9.881,16.989,21.76,33.255,35.547,48.253
			c13.831,14.954,29.409,28.762,46.517,40.983c4.227,3.118,8.65,6.006,13.029,8.966c4.492,2.808,8.914,5.736,13.533,8.401
			c4.537,2.786,9.258,5.313,13.922,7.942c4.769,2.462,9.473,5.051,14.354,7.356c9.645,4.813,19.608,9.126,29.674,13.267
			c5.069,1.996,10.119,4.049,15.277,5.878c2.572,0.927,5.119,1.916,7.716,2.795l7.788,2.646
			c20.797,7.006,42.194,12.662,63.799,17.461c43.252,9.53,87.517,14.9,131.26,17.589c43.755,2.782,87.011,3.053,128.894,2.751
			c41.896-0.469,82.464-1.619,120.986-3.416c9.628-0.506,19.13-0.923,28.49-1.467c4.681-0.26,9.327-0.518,13.936-0.772
			c4.609-0.259,9.178-0.594,13.712-0.883c4.536-0.274,9.034-0.546,13.492-0.814c4.457-0.312,8.875-0.619,13.251-0.925
			c8.753-0.619,17.35-1.191,25.767-1.846c33.669-2.56,64.58-5.076,91.984-7.564c27.442-2.492,51.366-4.664,71.068-6.453
			c9.854-0.965,18.673-1.743,26.345-2.436c7.678-0.686,14.208-1.27,19.503-1.742c10.596-0.939,16.269-1.35,16.269-1.35l0.717,3.935
			c0-0.001-5.465,1.571-15.752,4.35c-5.141,1.405-11.483,3.132-18.967,5.044c-7.488,1.879-16.097,4.058-25.761,6.404
			c-9.668,2.322-20.4,4.764-32.09,7.434c-11.719,2.496-24.375,5.355-37.972,8.012c-27.158,5.527-57.944,11.116-91.709,16.279
			c-4.222,0.648-8.486,1.303-12.794,1.965c-4.317,0.603-8.677,1.212-13.077,1.826c-4.403,0.607-8.848,1.221-13.333,1.84
			c-4.491,0.575-9.023,1.156-13.594,1.742c-4.575,0.551-9.184,1.148-13.841,1.673c-4.658,0.521-9.354,1.046-14.085,1.575
			c-9.457,1.126-19.092,1.983-28.854,2.917c-39.052,3.754-80.468,6.044-123.412,6.347c-21.477,0.023-43.33-0.449-65.444-1.56
			c-22.115-1.151-44.484-3.03-66.985-5.478c-44.981-5.032-90.547-12.513-135.383-23.84c-22.405-5.683-44.639-12.275-66.339-20.309
			l-8.123-3.034c-2.706-1.008-5.375-2.133-8.061-3.192c-5.38-2.095-10.671-4.426-15.97-6.7
			c-10.538-4.705-20.968-9.601-31.101-15.035c-5.113-2.61-10.072-5.523-15.073-8.305c-4.913-2.959-9.864-5.813-14.647-8.944
			c-4.848-3.013-9.539-6.268-14.232-9.47c-4.602-3.354-9.229-6.632-13.666-10.156c-17.93-13.83-34.253-29.378-48.621-46.109
			c-14.33-16.776-26.543-34.854-36.512-53.542c-9.952-18.71-17.554-38.052-23.123-57.306c-5.604-19.257-9.071-38.445-11.135-57.049
			c-2.052-18.617-2.515-36.681-2.07-53.934c0.517-17.257,2.008-33.713,4.175-49.226c2.126-15.52,4.897-30.103,7.94-43.684
			c6.099-27.17,13.373-50.308,20.095-69.051c6.722-18.752,12.877-33.137,17.282-42.847c2.202-4.855,3.979-8.541,5.197-11.019
			c0.622-1.24,1.094-2.182,1.41-2.812c0.318-0.619,0.48-0.934,0.48-0.934L1025.376,1051.729z"/>
	</g>
	<g>
		<path fill="#23F01F" d="M1023.578,1050.854c0,0,404.506-524.097,976.422,535.865"/>
		<path fill="#23F01F" d="M1022.003,1049.621c0,0,0.197-0.262,0.585-0.776c0.396-0.511,0.989-1.272,1.771-2.278
			c1.581-1.972,3.931-4.892,7.142-8.563c6.406-7.355,16.15-17.856,29.635-30.132c6.762-6.109,14.43-12.691,23.108-19.465
			c8.719-6.717,18.422-13.651,29.153-20.543c2.704-1.691,5.452-3.41,8.242-5.155c2.845-1.658,5.733-3.34,8.664-5.048
			c1.456-0.873,2.959-1.685,4.478-2.496c1.516-0.817,3.041-1.641,4.577-2.469c1.544-0.816,3.072-1.69,4.658-2.476
			c1.586-0.787,3.184-1.579,4.79-2.375c12.867-6.346,26.744-12.456,41.731-17.514c14.962-5.108,30.923-9.44,47.732-12.653
			c2.105-0.375,4.222-0.751,6.346-1.128c1.063-0.188,2.128-0.377,3.194-0.567c1.066-0.199,2.138-0.378,3.218-0.503
			c4.318-0.566,8.671-1.137,13.057-1.712c4.398-0.46,8.848-0.773,13.325-1.168c1.12-0.094,2.243-0.188,3.367-0.282
			c1.126-0.045,2.254-0.091,3.385-0.136c2.262-0.083,4.532-0.167,6.81-0.252c2.279-0.075,4.567-0.187,6.862-0.23
			c2.296,0.024,4.599,0.048,6.909,0.073c4.619,0.088,9.286-0.015,13.951,0.373c4.67,0.31,9.384,0.518,14.104,0.925
			c4.711,0.518,9.449,1.039,14.213,1.563c18.999,2.53,38.227,6.445,57.415,11.752c4.771,1.395,9.526,2.916,14.323,4.382l3.598,1.112
			c1.2,0.373,2.409,0.727,3.583,1.173c2.366,0.85,4.736,1.702,7.11,2.555c2.375,0.854,4.755,1.711,7.139,2.568l3.58,1.29
			c1.198,0.421,2.352,0.945,3.532,1.414c4.697,1.931,9.411,3.868,14.139,5.811c1.18,0.491,2.371,0.962,3.544,1.472l3.482,1.61
			c2.324,1.075,4.651,2.151,6.981,3.229c2.329,1.083,4.662,2.169,6.997,3.256c1.161,0.557,2.349,1.067,3.489,1.663l3.43,1.78
			c4.578,2.378,9.167,4.762,13.766,7.152c1.146,0.603,2.308,1.185,3.445,1.807l3.374,1.93c2.251,1.288,4.504,2.578,6.76,3.869
			c2.256,1.292,4.515,2.585,6.775,3.88c2.263,1.291,4.536,2.573,6.722,3.988c4.418,2.765,8.844,5.535,13.275,8.309
			c2.207,1.401,4.457,2.748,6.633,4.199l6.491,4.411c4.331,2.945,8.668,5.895,13.009,8.847c2.199,1.441,4.254,3.065,6.386,4.597
			l6.347,4.66c4.217,3.128,8.507,6.179,12.672,9.381c4.122,3.254,8.247,6.51,12.372,9.766l6.19,4.89l3.089,2.452l3.008,2.541
			c32.419,26.761,63.075,55.483,91.977,84.936c7.091,7.484,14.154,14.94,21.183,22.358c1.763,1.852,3.519,3.705,5.199,5.614
			c1.698,1.896,3.394,3.791,5.086,5.683c3.379,3.792,6.748,7.574,10.107,11.344c1.672,1.893,3.342,3.782,5.009,5.668l2.499,2.828
			l2.42,2.88c3.211,3.849,6.411,7.685,9.6,11.507c6.358,7.659,12.729,15.231,18.684,23.002c5.987,7.748,11.96,15.407,17.778,23.066
			c5.752,7.702,11.26,15.464,16.767,23.101c2.756,3.815,5.476,7.627,8.163,11.427c2.671,3.811,5.223,7.667,7.815,11.462
			c5.115,7.636,10.169,15.178,15.154,22.618c4.988,7.436,9.627,14.945,14.282,22.288c4.624,7.361,9.229,14.574,13.658,21.727
			c4.3,7.229,8.527,14.336,12.677,21.312c4.144,6.976,8.233,13.805,12.082,20.585c7.664,13.578,14.883,26.655,21.747,39.079
			c3.39,6.237,6.519,12.412,9.652,18.358c3.122,5.953,6.127,11.749,9.009,17.38c1.445,2.812,2.869,5.577,4.268,8.298
			c1.415,2.711,2.756,5.402,4.033,8.069c2.58,5.315,5.068,10.44,7.459,15.364c4.733,9.869,9.09,18.922,12.937,27.141
			c7.515,16.536,13.222,29.611,17.033,38.564c3.848,8.934,5.815,13.736,5.815,13.736l-3.52,1.898c0,0-3.004-4.24-8.48-12.264
			c-5.529-7.993-13.438-19.818-23.405-34.891c-5.113-7.461-10.678-15.77-16.744-24.801c-6.036-9.049-12.475-18.879-19.594-29.223
			c-7.107-10.351-14.463-21.48-22.355-33.112c-7.989-11.569-16.389-23.719-25.021-36.465c-8.827-12.601-18.022-25.726-27.54-39.31
			c-9.663-13.443-19.653-27.342-29.924-41.63c-5.231-7.06-10.533-14.215-15.9-21.459c-2.676-3.626-5.313-7.315-8.063-10.948
			c-2.778-3.611-5.558-7.254-8.329-10.932c-5.549-7.35-11.157-14.778-16.82-22.279c-5.812-7.375-11.58-14.895-17.433-22.45
			c-5.721-7.667-11.885-15.054-17.868-22.688c-3.008-3.804-6.027-7.621-9.057-11.451l-2.264-2.884l-2.336-2.825
			c-1.559-1.886-3.12-3.774-4.684-5.666c-3.113-3.797-6.236-7.604-9.367-11.424c-3.159-3.794-6.19-7.729-9.47-11.444
			c-6.46-7.533-12.952-15.104-19.471-22.706c-26.432-30.062-54.817-59.239-85.202-86.086l-2.823-2.55l-2.896-2.455l-5.802-4.896
			l-11.604-9.796c-3.905-3.212-7.923-6.264-11.875-9.403l-5.95-4.679c-1.998-1.536-3.928-3.173-5.986-4.615
			c-4.066-2.963-8.129-5.924-12.186-8.881l-6.085-4.437c-2.038-1.459-4.143-2.809-6.209-4.217c-4.15-2.792-8.296-5.58-12.433-8.362
			c-2.05-1.428-4.176-2.717-6.293-4.016c-2.115-1.305-4.229-2.607-6.34-3.909c-2.111-1.303-4.221-2.604-6.328-3.905l-3.16-1.951
			c-1.064-0.628-2.148-1.214-3.221-1.823c-4.303-2.417-8.596-4.829-12.877-7.234l-3.211-1.805c-1.067-0.605-2.176-1.121-3.262-1.685
			c-2.179-1.11-4.355-2.22-6.529-3.327c-2.172-1.113-4.342-2.225-6.508-3.335l-3.248-1.666c-1.093-0.528-2.201-1.016-3.301-1.525
			c-4.406-2.021-8.8-4.035-13.179-6.043c-1.101-0.489-2.179-1.036-3.295-1.477l-3.335-1.351c-2.223-0.901-4.44-1.8-6.655-2.698
			c-2.216-0.899-4.428-1.797-6.635-2.693c-1.098-0.471-2.224-0.847-3.342-1.243l-3.355-1.184c-4.474-1.562-8.914-3.186-13.371-4.688
			c-17.913-5.729-35.889-10.142-53.709-13.251c-4.472-0.674-8.919-1.344-13.34-2.01c-4.435-0.561-8.864-0.927-13.261-1.401
			c-4.395-0.544-8.784-0.65-13.143-0.925c-2.182-0.122-4.355-0.243-6.522-0.365c-2.167-0.055-4.329-0.042-6.483-0.067
			c-2.156-0.017-4.305-0.034-6.446-0.051c-1.071-0.005-2.141-0.011-3.208-0.017c-1.065,0.042-2.13,0.085-3.191,0.127
			c-4.247,0.188-8.475,0.292-12.661,0.541c-4.18,0.359-8.329,0.717-12.444,1.071c-1.032,0.071-2.055,0.196-3.073,0.341
			c-1.021,0.135-2.038,0.27-3.055,0.404c-2.033,0.269-4.058,0.536-6.074,0.802c-16.104,2.341-31.513,5.788-46.06,10.039
			c-3.621,1.124-7.204,2.236-10.748,3.336c-3.503,1.234-6.968,2.455-10.393,3.662c-1.726,0.576-3.401,1.249-5.071,1.911
			c-1.673,0.658-3.335,1.313-4.986,1.964c-1.646,0.668-3.313,1.258-4.913,1.98c-1.609,0.702-3.209,1.399-4.797,2.092
			c-1.591,0.693-3.171,1.381-4.74,2.065c-1.57,0.684-3.086,1.457-4.617,2.173c-1.526,0.729-3.041,1.452-4.547,2.171
			c-1.508,0.712-3.004,1.427-4.454,2.204c-2.923,1.516-5.804,3.01-8.642,4.481c-2.792,1.562-5.542,3.1-8.248,4.613
			c-10.758,6.187-20.552,12.482-29.395,18.627c-8.824,6.174-16.69,12.199-23.646,17.834c-13.877,11.32-24.029,21.134-30.713,28.017
			c-3.352,3.438-5.807,6.173-7.455,8.015c-0.805,0.927-1.415,1.629-1.824,2.1c-0.402,0.479-0.607,0.722-0.607,0.722
			L1022.003,1049.621z"/>
	</g>
	<g opacity="0.6">
		<path fill="#FFFFFF" d="M1739.1,1551.738c0,0-0.911-2.014-2.4-5.568c-0.757-1.774-1.646-3.938-2.637-6.432
			c-0.988-2.493-2.132-5.301-3.291-8.393c-1.148-3.098-2.392-6.454-3.707-10.004c-1.306-3.558-2.595-7.337-3.936-11.253
			c-1.301-3.925-2.636-7.992-3.882-12.16c-1.277-4.161-2.463-8.423-3.634-12.703c-1.158-4.283-2.473-8.552-3.726-12.796
			c-0.609-2.124-1.218-4.239-1.722-6.354c-0.503-2.113-0.905-4.226-1.215-6.322c-0.592-4.197-0.744-8.338-0.596-12.31
			c0.145-3.971,0.538-7.77,1.219-11.295c0.642-3.525,1.574-6.775,2.686-9.622c1.101-2.848,2.439-5.286,3.818-7.156
			c1.389-1.874,2.758-3.16,3.865-3.842c0.5-0.363,0.977-0.573,1.256-0.716c0.29-0.133,0.44-0.202,0.44-0.202l1.447,1.381
			c0,0-0.024,0.14-0.073,0.412c-0.031,0.283-0.152,0.604-0.173,1.126c-0.106,0.967-0.099,2.389,0.065,4.124
			c0.331,3.496,1.405,8.449,2.728,14.486c0.684,3.017,1.389,6.303,2.107,9.806c0.727,3.504,1.419,7.225,1.876,11.139
			c0.216,1.958,0.383,3.964,0.507,6.012c0.09,2.061,0.181,4.146,0.273,6.249c0.158,4.227,0.41,8.539,0.921,12.818
			c0.497,4.281,1.083,8.561,1.63,12.79c0.573,4.234,1.138,8.401,1.685,12.434c0.561,4.045,1.104,7.955,1.617,11.663
			c0.541,3.713,1.053,7.223,1.524,10.464c1.946,12.995,3.243,21.658,3.243,21.658L1739.1,1551.738z"/>
	</g>
	<g opacity="0.6">
		<path fill="#FFFFFF" d="M1536.52,1128.256c0,0-3.902-1.322-10.837-3.349c-3.47-1.003-7.685-2.207-12.53-3.528
			c-4.846-1.322-10.343-2.699-16.336-4.164c-5.995-1.457-12.508-2.938-19.42-4.338c-6.914-1.39-14.2-2.807-21.766-4.025
			c-7.564-1.229-15.4-2.256-23.343-3.19c-7.946-0.909-16.026-1.563-24.082-1.887c-8.055-0.319-16.098-0.185-23.912,0.414
			c-7.816,0.609-15.39,1.534-22.625,2.486c-7.242,0.931-14.15,1.997-20.627,3.302c-3.222,0.702-6.372,1.362-9.351,2.21
			c-1.495,0.402-2.99,0.764-4.404,1.234c-1.422,0.456-2.854,0.842-4.203,1.331c-5.458,1.85-10.402,3.856-14.696,5.948
			c-1.082,0.511-2.08,1.081-3.094,1.578c-1.022,0.487-1.964,1.022-2.866,1.55c-0.906,0.521-1.813,0.989-2.645,1.486
			c-0.827,0.511-1.616,0.997-2.364,1.459c-1.537,0.9-2.819,1.825-3.992,2.592c-1.192,0.75-2.149,1.46-2.948,2.023
			c-1.586,1.14-2.483,1.735-2.483,1.735l-1.557-1.256c0,0,0.445-0.976,1.377-2.783c0.233-0.455,0.494-0.962,0.782-1.521
			c0.297-0.554,0.667-1.12,1.046-1.757c0.793-1.24,1.65-2.743,2.817-4.252c0.563-0.774,1.163-1.593,1.811-2.439
			c0.663-0.83,1.389-1.671,2.146-2.558c1.497-1.798,3.295-3.558,5.24-5.453c3.948-3.708,8.844-7.479,14.614-10.896
			c1.425-0.899,2.932-1.692,4.477-2.502c1.535-0.843,3.142-1.575,4.773-2.354c3.288-1.479,6.74-2.891,10.361-4.097
			c7.217-2.504,15.061-4.304,23.207-5.259c8.151-0.953,16.594-1.004,25.055-0.544c8.465,0.459,16.96,1.34,25.385,2.376
			c8.428,1.031,16.771,2.401,24.907,4.013c8.143,1.574,16.058,3.502,23.654,5.518c7.592,2.04,14.877,4.146,21.71,6.36
			c6.837,2.198,13.241,4.427,19.115,6.567c5.876,2.138,11.2,4.252,15.901,6.158s8.764,3.65,12.085,5.141
			c6.648,2.964,10.382,4.822,10.382,4.822L1536.52,1128.256z"/>
	</g>
	<g opacity="0.6">
		<path fill="#FFFFFF" d="M1152.493,1433.15c0,0-1.354-5.42-3.577-14.933c-1.121-4.755-2.435-10.539-3.88-17.188
			c-1.444-6.647-3.079-14.151-4.738-22.361c-1.665-8.209-3.419-17.114-5.205-26.55c-1.8-9.435-3.535-19.413-5.286-29.751
			c-1.734-10.339-3.479-21.04-4.994-31.954c-1.547-10.912-3.004-22.021-4.312-33.161c-1.315-11.139-2.623-22.299-3.768-33.327
			c-1.15-11.028-2.02-21.938-2.232-32.545c-0.2-10.605,0.172-20.901,1.053-30.661c0.206-2.44,0.453-4.851,0.712-7.218
			c0.295-2.369,0.585-4.703,0.87-6.998c0.693-4.586,1.384-9.016,2.263-13.248c1.69-8.473,3.842-16.179,6.282-22.862
			c2.422-6.689,5.2-12.332,7.917-16.721c0.719-1.085,1.387-2.109,2.043-3.05c0.646-0.945,1.37-1.777,1.976-2.569
			c1.183-1.6,2.466-2.793,3.393-3.786c0.99-0.961,1.823-1.627,2.354-2.086c0.541-0.449,0.819-0.681,0.819-0.681l1.49,1.334
			c0,0-0.16,0.309-0.47,0.907c-0.291,0.608-0.808,1.432-1.341,2.589c-1.046,2.337-2.47,5.739-3.688,10.268
			c-1.216,4.53-2.293,10.12-3.118,16.613c-0.825,6.494-1.37,13.893-1.719,22.003c-0.325,8.113-0.436,16.942-0.383,26.311
			c0.121,9.395,0.249,19.302,0.381,29.55c0.034,10.316,0.069,20.976,0.104,31.808c0.071,10.868,0.38,21.932,1.001,32.986
			c0.623,11.055,1.396,22.114,2.271,33c0.907,10.881,1.778,21.604,2.749,31.976c0.951,10.374,2.017,20.391,2.999,29.899
			c0.997,9.506,2.007,18.49,2.985,26.779c0.998,8.291,1.912,15.891,2.723,22.626c0.861,6.733,1.611,12.603,2.229,17.437
			c1.257,9.668,2.059,15.178,2.059,15.178L1152.493,1433.15z"/>
	</g>
	<path opacity="0.6" fill="none" stroke="#FFFFFF" stroke-width="20" stroke-miterlimit="10" d="M728.051,1027.682
		c0,0,186.652,1.199,295.297,24.281c223.727,47.531,536.35,158.227,785.533,457.043"/>
	<g opacity="0.6">
		<path fill="#FFFFFF" d="M1734.484,1337.279c0,0-2.174-0.468-5.979-1.286c-3.801-0.799-9.23-1.938-15.746-3.308
			c-3.252-0.68-6.774-1.405-10.506-2.129c-3.725-0.72-7.653-1.479-11.717-2.263c-4.054-0.757-8.242-1.54-12.497-2.335
			c-4.256-0.749-8.558-1.557-12.869-2.251c-2.157-0.338-4.313-0.683-6.479-0.89c-1.081-0.116-2.159-0.232-3.234-0.349
			c-1.076-0.091-2.149-0.181-3.218-0.271c-2.126-0.185-4.234-0.368-6.317-0.549c-2.07-0.233-4.094-0.455-6.073-0.77
			c-3.952-0.633-7.703-1.467-11.25-2.369c-1.773-0.44-3.486-0.855-5.156-1.315c-1.66-0.44-3.261-0.829-4.811-1.301
			c-1.54-0.398-3.013-0.805-4.434-1.216c-1.411-0.414-2.743-0.718-4.023-1.122c-0.643-0.207-1.252-0.344-1.846-0.504
			c-0.599-0.164-1.177-0.321-1.731-0.473c-0.558-0.149-1.108-0.341-1.619-0.461c-0.51-0.116-1.002-0.247-1.475-0.37
			c-0.939-0.227-1.816-0.51-2.563-0.678c-0.745-0.17-1.395-0.317-1.935-0.462c-1.073-0.26-1.681-0.438-1.681-0.438l-0.482-1.941
			c0,0,0.478-0.396,1.438-1.066c0.478-0.35,1.082-0.749,1.812-1.216c0.731-0.438,1.581-0.867,2.561-1.347
			c0.978-0.499,2.085-0.991,3.289-1.43c1.205-0.424,2.551-0.965,3.968-1.331c0.71-0.206,1.447-0.4,2.21-0.584
			c0.76-0.177,1.56-0.418,2.358-0.554c1.602-0.288,3.311-0.619,5.084-0.84c1.761-0.219,3.612-0.397,5.517-0.521
			c1.887-0.072,3.86-0.158,5.861-0.132c4.001,0.042,8.191,0.353,12.417,1.131c4.229,0.771,8.487,2.045,12.738,3.494
			c4.262,1.43,8.534,2.96,12.832,4.319c4.296,1.372,8.565,2.78,12.733,4.26c4.169,1.467,8.235,3.01,12.152,4.526
			c3.906,1.557,7.677,3.05,11.215,4.563c3.546,1.494,6.879,2.944,9.949,4.291c3.07,1.343,5.854,2.658,8.326,3.8
			c2.47,1.148,4.612,2.171,6.366,3.042c3.513,1.716,5.499,2.764,5.499,2.764L1734.484,1337.279z"/>
	</g>
	<g opacity="0.6">
		<path fill="#FFFFFF" d="M1472.24,1440.185c0,0-1.35-3.437-3.532-9.499c-1.099-3.031-2.401-6.722-3.841-10.975
			c-1.443-4.251-3.07-9.051-4.744-14.319c-1.678-5.268-3.452-10.989-5.276-17.062c-0.909-3.037-1.837-6.16-2.728-9.368
			c-0.914-3.202-1.828-6.479-2.732-9.821c-1.831-6.678-3.66-13.604-5.338-20.686c-1.679-7.084-3.327-14.302-4.855-21.557
			c-1.504-7.259-3.156-14.508-4.634-21.699c-1.516-7.181-2.786-14.314-3.511-21.287c-0.727-6.971-0.96-13.773-0.839-20.236
			c0.007-0.807,0.014-1.608,0.021-2.404c0.035-0.799,0.07-1.591,0.104-2.378c0.074-1.571,0.146-3.118,0.218-4.64
			c0.084-1.52,0.199-3.016,0.344-4.487c0.123-1.47,0.277-2.91,0.432-4.319c0.25-2.814,0.713-5.521,1.103-8.08
			c0.216-1.276,0.426-2.521,0.63-3.73c0.234-1.21,0.488-2.383,0.745-3.516c0.506-2.268,0.961-4.374,1.508-6.316
			c0.567-1.94,1.081-3.713,1.594-5.301c0.468-1.592,1.006-2.997,1.48-4.213c0.48-1.215,0.892-2.241,1.252-3.067
			c0.69-1.654,1.104-2.52,1.103-2.52l1.977,0.311c-0.001,0,0.17,0.952,0.407,2.704c0.134,0.878,0.266,1.952,0.417,3.207
			c0.068,0.625,0.142,1.297,0.219,2.014c0.098,0.716,0.2,1.478,0.309,2.282c0.399,3.177,0.885,7.034,1.441,11.459
			c0.146,1.099,0.273,2.228,0.398,3.389c0.161,1.164,0.326,2.36,0.497,3.589c0.315,2.453,0.6,5.015,0.98,7.7
			c0.685,5.346,1.427,11.138,2.212,17.264c0.82,6.118,1.575,12.57,2.19,19.281c0.304,3.356,0.512,6.777,0.764,10.252
			c0.199,3.483,0.401,7.01,0.605,10.563c0.106,1.781,0.213,3.57,0.319,5.363c0.141,1.793,0.282,3.592,0.424,5.394
			c0.246,3.609,0.676,7.216,1.079,10.825c0.838,7.217,1.8,14.43,2.804,21.529c1.067,7.088,2.024,14.092,3.095,20.853
			c1.022,6.771,2.169,13.29,3.187,19.494c1.042,6.198,2.079,12.055,3.078,17.454c1.007,5.398,1.896,10.36,2.756,14.743
			c0.861,4.385,1.611,8.208,2.229,11.356c1.29,6.288,2.027,9.882,2.027,9.882L1472.24,1440.185z"/>
	</g>
</g>
<g>
	<linearGradient id="SVGID_1_" gradientUnits="userSpaceOnUse" x1="1000.0005" y1="1453.9785" x2="1000.0004" y2="546.022">
		<stop  offset="0" style="stop-color:#23F01F"/>
		<stop  offset="0.2742" style="stop-color:#5CFFDA"/>
		<stop  offset="0.3743" style="stop-color:#61FFDB"/>
		<stop  offset="0.4897" style="stop-color:#6FFFDE"/>
		<stop  offset="0.6126" style="stop-color:#86FFE3"/>
		<stop  offset="0.7408" style="stop-color:#A6FFEB"/>
		<stop  offset="0.8718" style="stop-color:#CFFFF4"/>
		<stop  offset="1" style="stop-color:#FFFFFF"/>
	</linearGradient>
	<circle fill="url(#SVGID_1_)" stroke="#FFFFFF" stroke-width="14" stroke-miterlimit="10" cx="1000" cy="1000.001" r="453.979"/>
	<g>
		<g>
			<path fill="#FFFFFF" d="M1250.854,832.845H936.625c-15.351,0-40.98,5.818-40.98,45.313v60.42h396.189v-60.42
				C1291.834,838.787,1266.205,832.845,1250.854,832.845z"/>
		</g>
	</g>
	<g>
		<g>
			<polygon fill="#FFFFFF" points="810.217,951.701 750.415,951.701 750.415,740.482 710.796,740.482 710.796,1149.92 
				750.415,1149.92 750.415,1044.187 1278.71,1044.187 1278.71,1149.796 1318.329,1149.796 1318.329,951.701 			"/>
		</g>
	</g>
	<g>
		<g>
			<path fill="#FFFFFF" d="M816.407,830.369c30.565,0,55.342,24.776,55.342,55.342s-24.776,55.343-55.342,55.343
				c-30.567,0-55.343-24.777-55.343-55.343S785.84,830.369,816.407,830.369z"/>
		</g>
	</g>
</g>
</svg>
